<?xml version="1.0" encoding="UTF-8"?>
<svg id="Layer_1" xmlns="http://www.w3.org/2000/svg" version="1.1" viewBox="0 0 32 32">
  <defs>
    <style>
      .st0 {
        stroke: red;
        stroke-width: 2px;
      }

      .st0, .st1 {
        fill: none;
        stroke-linecap: round;
        stroke-linejoin: round;
      }

      .st1 {
        stroke: #000;
        stroke-width: 3px;
      }
    </style>
  </defs>
  <path class="st1" d="M23.07,16l1.7-1.71c1.91-1.98,1.86-5.14-.12-7.05-1.94-1.87-5-1.87-6.93,0l-1.72,1.71"/>
  <path class="st1" d="M9.38,15.55l-1.71,1.71c-1.91,1.98-1.86,5.14.12,7.05,1.94,1.87,5,1.87,6.93,0l1.71-1.71"/>
  <line class="st0" x1="12.01" y1="4.27" x2="12.01" y2="9.27"/>
  <line class="st0" x1="4.43" y1="12.01" x2="9.43" y2="12.01"/>
  <line class="st0" x1="19.99" y1="22.56" x2="19.99" y2="27.56"/>
  <line class="st0" x1="22.72" y1="22.56" x2="26.26" y2="26.1"/>
  <line class="st0" x1="22.72" y1="19.99" x2="27.72" y2="19.99"/>
  <line class="st0" x1="5.89" y1="5.73" x2="9.43" y2="9.27"/>
</svg>