<?xml version="1.0" encoding="UTF-8"?>
<svg id="Layer_1" xmlns="http://www.w3.org/2000/svg" version="1.1" viewBox="0 0 32 32">
  <defs>
    <style>
      .st0 {
        stroke: red;
      }

      .st0, .st1 {
        fill: none;
        stroke-linecap: round;
        stroke-linejoin: round;
        stroke-width: 3px;
      }

      .st1 {
        stroke: #000;
      }
    </style>
  </defs>
  <path class="st1" d="M16.88,5.62c-.56-.25-1.2-.25-1.75,0l-9.06,4.12c-.53.24-.78.86-.54,1.39.11.24.3.43.54.54l9.07,4.13c.28.13.57.19.88.19s.6-.06.88-.19l9.07-4.12c.53-.23.78-.86.54-1.39-.11-.24-.3-.44-.54-.54l-9.08-4.13h0Z"/>
  <path class="st0" d="M20.23,21.29h6.34"/>
  <path class="st0" d="M23.4,18.11v6.34"/>
  <path class="st1" d="M5.43,16c0,.41.24.79.61.96l9.09,4.13c.27.12.57.19.87.19"/>
  <path class="st1" d="M5.43,21.29c0,.41.24.79.61.96l9.09,4.13c.55.25,1.19.25,1.74,0l2.24-1.02"/>
</svg>