<?xml version="1.0" encoding="UTF-8"?>
<svg id="Layer_1" xmlns="http://www.w3.org/2000/svg" version="1.1" viewBox="0 0 32 32">
  <defs>
    <style>
      .st0 {
        stroke: red;
      }

      .st0, .st1 {
        fill: none;
        stroke-linecap: round;
        stroke-linejoin: round;
        stroke-width: 3px;
      }

      .st1 {
        stroke: #000;
      }
    </style>
  </defs>
  <path class="st1" d="M14.59,8.31c5.31-.63,10.4,2.35,12.45,7.3.09.25.09.53,0,.78-.41.99-.94,1.92-1.6,2.77"/>
  <path class="st1" d="M18.31,18.4c-1.32,1.28-3.43,1.24-4.71-.08-1.25-1.3-1.25-3.34,0-4.63"/>
  <path class="st1" d="M22.08,22.11c-5.67,3.36-12.99,1.49-16.35-4.18-.29-.49-.55-1.01-.77-1.54-.09-.25-.09-.53,0-.78.98-2.39,2.72-4.4,4.94-5.71"/>
  <path class="st0" d="M4.9,4.9l22.21,22.21"/>
</svg>