<?xml version="1.0" encoding="UTF-8"?>
<svg id="Layer_1" xmlns="http://www.w3.org/2000/svg" version="1.1" viewBox="0 0 32 32">
  <defs>
    <style>
      .st0 {
        fill: none;
        stroke: #000;
        stroke-linecap: round;
        stroke-linejoin: round;
        stroke-width: 3px;
      }
    </style>
  </defs>
  <path class="st0" d="M22.88,13.13v-2.87c0-1.27-1.03-2.29-2.29-2.29s-2.29,1.03-2.29,2.29v1.61"/>
  <path class="st0" d="M18.29,11.41v-2.29c0-1.27-1.03-2.29-2.29-2.29s-2.29,1.03-2.29,2.29v2.29"/>
  <path class="st0" d="M13.71,11.3v-1.03c0-1.27-1.03-2.29-2.29-2.29s-2.29,1.03-2.29,2.29v5.73"/>
  <path class="st0" d="M22.88,12.56c0-1.27,1.03-2.29,2.29-2.29s2.29,1.03,2.29,2.29v3.44c0,5.07-4.11,9.17-9.17,9.17h-4.59c-5.07,0-9.17-4.11-9.17-9.17,0-1.27,1.03-2.29,2.29-2.29s2.29,1.03,2.29,2.29"/>
</svg>