<?xml version="1.0" encoding="UTF-8"?>
<svg id="Layer_1" xmlns="http://www.w3.org/2000/svg" version="1.1" viewBox="0 0 1024 559">
  <!-- Generator: Adobe Illustrator 30.3.0, SVG Export Plug-In . SVG Version: 2.1.3 Build 182)  -->
  <defs>
    <style>
      .st0 {
        fill: #39f;
      }

      .st1 {
        fill: #ffc60b;
      }
    </style>
  </defs>
  <g>
    <path class="st0" d="M287.41,292.17H120.54c5.99,33.54,35.38,59.09,70.63,59.09,21.88,0,41.51-9.85,54.68-25.35h30.56c-11.18,20.45-29.49,36.47-51.58,44.65-10.49,3.89-21.84,6.02-33.66,6.02-53.52,0-97.07-43.55-97.07-97.07,0-32.9,16.45-62.02,41.56-79.58,2.91-.24,5.86-.37,8.83-.37,14.61,0,28.51,3,41.14,8.42-32.75,2.51-59.42,27.1-65.09,58.87h82.67l7.81-7.81c7.18-7.18,9.21-17.65,5.9-26.79-.04-.09-.06-.19-.06-.29,0-.4.33-.72.73-.72.19,0,.36.08.49.19.04.04.08.08.11.13,3.13,3.61,6.52,7.01,10.12,10.15,1.07.93,1.07.93.02.02,9.39,8.2,20.25,14.75,32.15,19.19,8.52,3.17,17.56,5.28,26.96,6.12.53,4.09.8,8.25.8,12.47s-.28,8.52-.83,12.66h0Z"/>
    <path class="st1" d="M259.46,210.59c-16.85-16.7-39.75-27.28-65.09-28.1-1.06-.04-2.14-.06-3.21-.06-20.63,0-39.77,6.47-55.51,17.49,2.91-.24,5.86-.37,8.83-.37,14.61,0,28.51,3,41.14,8.42,1.82-.15,3.67-.22,5.54-.22,4.05,0,8.03.34,11.9,1,14.87,2.48,28.21,9.57,38.5,19.74,8.93,8.82,15.57,19.96,18.91,32.43,8.52,3.17,17.56,5.28,26.96,6.12-2.82-21.94-13-41.61-27.97-56.44h0Z"/>
    <path class="st0" d="M198.04,233.79c-2.02,2.46-4.43,4.43-7.15,5.73-7.62,3.63-15.75,1.01-21.33-5.85,2.02-2.46,4.42-4.43,7.14-5.73,7.62-3.63,15.76-1.01,21.34,5.85Z"/>
  </g>
  <g>
    <path class="st0" d="M382.02,275.92c-2.77-4.94-6.59-8.81-11.5-11.62-4.89-2.8-10.48-4.2-16.75-4.2s-12.25,1.42-17.4,4.26c-5.15,2.85-9.2,6.81-12.18,11.87-2.96,5.06-4.46,10.9-4.46,17.51s1.55,12.43,4.65,17.46c3.1,5.01,7.41,8.96,12.93,11.8s11.92,4.26,19.21,4.26c6.03,0,11.53-1.02,16.51-3.07s9.06-4.87,12.24-8.47l-8.78-10.17c-5.2,5.86-11.56,8.79-19.09,8.79-4.1,0-7.72-.81-10.87-2.44-3.13-1.64-5.61-4.02-7.41-7.16-1.02-1.77-1.75-3.76-2.17-5.96h49.19v-5.65c0-6.53-1.38-12.26-4.14-17.2h.02ZM336.87,288.23c.35-2.09.95-3.99,1.77-5.71,1.46-3.06,3.48-5.4,6.08-7.03,2.6-1.64,5.61-2.45,9.04-2.45s6.08.8,8.47,2.38c2.38,1.59,4.26,3.81,5.65,6.67.9,1.83,1.51,3.89,1.81,6.14h-32.83.01Z"/>
    <path class="st0" d="M406.87,251.19c-2.76,0-5.13-.94-7.09-2.82-1.97-1.88-2.95-4.16-2.95-6.84,0-2.84.98-5.19,2.95-7.03s4.33-2.76,7.09-2.76,5.23.94,7.16,2.82c1.92,1.88,2.89,4.21,2.89,6.97s-.96,4.96-2.89,6.84c-1.93,1.88-4.31,2.82-7.16,2.82h0ZM415.16,325.26h-16.57v-63.15h16.57v63.15Z"/>
    <path class="st0" d="M480.45,234.86v35.75s-.04-.06-.06-.1c-2.22-3.27-5.11-5.82-8.67-7.66-3.56-1.83-7.76-2.76-12.61-2.76-5.86,0-11.17,1.42-15.94,4.26-4.77,2.85-8.56,6.79-11.36,11.8-2.8,5.03-4.21,10.89-4.21,17.58s1.41,12.43,4.21,17.46c2.8,5.01,6.6,8.96,11.42,11.8,4.81,2.84,10.15,4.26,16,4.26,5.52,0,10.23-1.17,14.13-3.51,2.93-1.76,5.33-3.98,7.21-6.68v8.18h16.45v-90.4h-16.57v.02h0ZM471.79,311.64c-2.6,1.21-5.45,1.82-8.55,1.82-3.68,0-6.91-.84-9.66-2.51-2.77-1.68-4.94-4.02-6.53-7.03s-2.38-6.4-2.38-10.17.73-7.38,2.2-10.36c1.46-2.97,3.56-5.29,6.28-6.97s5.84-2.51,9.35-2.51,6.63.84,9.36,2.51c2.72,1.68,4.83,3.99,6.34,6.97,1.51,2.97,2.26,6.56,2.26,10.73v8.23c-.53,1.48-1.3,2.87-2.26,4.14-1.68,2.22-3.81,3.93-6.4,5.15h-.01Z"/>
    <path class="st0" d="M571.6,275.92c-2.77-4.94-6.59-8.81-11.49-11.62-4.9-2.8-10.49-4.2-16.77-4.2s-12.24,1.42-17.39,4.26c-5.15,2.85-9.21,6.81-12.19,11.87-2.96,5.06-4.46,10.9-4.46,17.51s1.55,12.43,4.65,17.46c3.1,5.01,7.41,8.96,12.93,11.8s11.93,4.26,19.21,4.26c6.03,0,11.53-1.02,16.51-3.07,4.98-2.05,9.07-4.87,12.25-8.47l-8.79-10.17c-5.2,5.86-11.56,8.79-19.09,8.79-4.1,0-7.72-.81-10.87-2.44-3.13-1.64-5.61-4.02-7.41-7.16-1.02-1.77-1.75-3.76-2.19-5.96h49.21v-5.65c0-6.53-1.38-12.26-4.14-17.2h.03,0ZM526.45,288.23c.35-2.09.95-3.99,1.77-5.71,1.46-3.06,3.5-5.4,6.08-7.03,2.6-1.64,5.61-2.45,9.04-2.45s6.09.8,8.47,2.38c2.38,1.59,4.27,3.81,5.65,6.67.9,1.83,1.51,3.89,1.81,6.14h-32.83.01Z"/>
    <path class="st0" d="M627.47,260.98v15.07h-3.4c-3.93,0-7.32.78-10.16,2.32-2.85,1.55-5.09,3.96-6.73,7.22-1.63,3.27-2.44,7.49-2.44,12.69v26.99h-16.57v-63.16h16.44v12.3c.74-1.88,1.64-3.51,2.71-4.89,2.38-3.1,5.18-5.29,8.41-6.59,3.22-1.29,6.37-1.94,9.48-1.94h2.26Z"/>
    <polygon class="st0" points="656.72 249.81 656.72 272.66 698.02 272.66 698.02 286.97 656.72 286.97 656.72 325.26 639.77 325.26 639.77 235.5 700.41 235.5 700.41 249.81 656.72 249.81"/>
    <path class="st0" d="M773.48,325.26h-59.39v-89.77h16.95v75.08h42.44v14.69h0Z"/>
    <path class="st0" d="M835.25,235.5h-18.7l-35.41,89.77h17.58l7.44-19.72h38.85l7.44,19.72h18.21l-35.41-89.77h0ZM811.56,291.23l14.02-37.16,14.02,37.16h-28.04Z"/>
    <polygon class="st0" points="936.45 235.5 936.45 249.92 908.32 249.92 908.32 325.26 891.37 325.26 891.37 249.92 863.25 249.92 863.25 235.5 936.45 235.5"/>
  </g>
</svg>