<?xml version="1.0" encoding="UTF-8"?>
<svg id="Layer_1" xmlns="http://www.w3.org/2000/svg" version="1.1" viewBox="0 0 512 512">
  <!-- Generator: Adobe Illustrator 30.3.0, SVG Export Plug-In . SVG Version: 2.1.3 Build 182)  -->
  <defs>
    <style>
      .st0 {
        fill: #00a4ff;
      }

      .st1 {
        fill: #ffc60b;
      }
    </style>
  </defs>
  <path class="st0" d="M474.13,284.7H95.93c13.58,76.03,80.2,133.91,160.07,133.91,49.58,0,94.09-22.33,123.93-57.45h69.27c-25.33,46.35-66.85,82.65-116.9,101.2-23.78,8.82-49.49,13.64-76.3,13.64-121.31,0-220-98.69-220-220,0-74.57,37.29-140.57,94.2-180.37,6.6-.55,13.28-.84,20.01-.84,33.12,0,64.63,6.79,93.24,19.1-74.23,5.68-134.66,61.41-147.52,133.41h187.36l17.7-17.7c16.28-16.28,20.87-40,13.37-60.72-.1-.21-.13-.42-.13-.65,0-.89.74-1.63,1.65-1.63.44,0,.82.17,1.11.44.1.1.17.19.25.29,7.1,8.19,14.77,15.87,22.94,23.02,2.42,2.11,2.43,2.13.04.04,21.27,18.6,45.9,33.42,72.87,43.48,19.3,7.19,39.79,11.96,61.1,13.87,1.21,9.26,1.82,18.69,1.82,28.26s-.64,19.3-1.88,28.7v.02h0v-.02h0Z"/>
  <path class="st1" d="M410.78,99.82c-38.18-37.84-90.09-61.83-147.52-63.69-2.41-.1-4.84-.13-7.27-.13-46.76,0-90.12,14.66-125.81,39.64,6.6-.55,13.28-.84,20.01-.84,33.12,0,64.63,6.79,93.24,19.1,4.13-.34,8.32-.5,12.55-.5,9.18,0,18.19.77,26.97,2.26,33.71,5.63,63.94,21.69,87.26,44.72,20.24,19.99,35.28,45.24,42.85,73.5,19.3,7.19,39.79,11.96,61.1,13.87-6.39-49.72-29.46-94.3-63.4-127.93h.02Z"/>
  <path class="st0" d="M271.6,152.4c-4.57,5.58-10.04,10.04-16.21,12.99-17.28,8.22-35.7,2.3-48.35-13.26,4.57-5.58,10.03-10.04,16.19-12.99,17.28-8.22,35.71-2.3,48.36,13.26h0Z"/>
</svg>